Coordinates
version=1
nRows=11
nColumns=36
inDegrees=yes

Units are S.I. units (second, meters, Newtons, ...)
If the header above contains a line with 'inDegrees', this indicates whether rotational values are in degrees (yes) or radians (no).

endheader
time	pelvis_tilt	pelvis_list	pelvis_rotation	pelvis_tx	pelvis_ty	pelvis_tz	hip_flexion_r	hip_adduction_r	hip_rotation_r	knee_angle_r	knee_angle_r_beta	ankle_angle_r	subtalar_angle_r	mtp_angle_r	hip_flexion_l	hip_adduction_l	hip_rotation_l	knee_angle_l	knee_angle_l_beta	ankle_angle_l	subtalar_angle_l	mtp_angle_l	lumbar_extension	lumbar_bending	lumbar_rotation	arm_flex_r	arm_add_r	arm_rot_r	elbow_flex_r	pro_sup_r	arm_flex_l	arm_add_l	arm_rot_l	elbow_flex_l	pro_sup_l
      6.70000000	    -33.10782834	      2.68688279	      4.17518111	      0.39431245	      0.64481643	     -0.10211373	     94.61486842	    -27.87133017	      0.07607396	     91.01398203	      1.58849365	     44.56292807	     24.20272331	     -7.49999987	     88.90603800	    -20.92251135	     -9.47527705	     87.03018904	      1.51896335	     40.08380737	     21.90368720	     -7.49999987	    -30.36649568	     -6.48028417	     -2.08551951	     98.78035065	      7.42707209	     68.92767825	    120.14534081	     84.53163305	     96.18830176	      9.90457673	     78.75108440	    119.82073349	     77.70231874
      6.71666670	    -33.66640844	      2.33348081	      4.74095612	      0.40391934	      0.64366135	     -0.09246196	     95.82351050	    -28.00157641	      0.00920792	     92.33460751	      1.61154291	     45.13088427	     24.18670335	     -7.49999987	     90.33274049	    -21.35347457	     -8.99707637	     87.89053027	      1.53397913	     39.39956918	     22.04086395	     -7.49999987	    -30.73194150	     -6.56367168	     -2.29809022	     98.61686067	      7.47348815	     68.86155450	    120.29348189	     84.34457312	     96.67824452	      9.97959279	     79.54450207	    119.86397352	     78.31102716
      6.73333330	    -34.09203411	      1.87174704	      5.06181432	      0.38632850	      0.62576560	     -0.09411317	     97.85515517	    -27.98742144	      0.04358510	     93.97374499	      1.64015126	     44.97745563	     23.65181580	     -7.49999987	     92.95341410	    -21.56837391	     -7.86848216	     89.69647962	      1.56549890	     38.95673503	     21.95617391	     -7.49999987	    -31.35792431	     -6.31721369	     -2.34724654	    100.42729462	      7.40617194	     67.61170210	    120.21081115	     83.01797244	     98.94383235	     10.43425430	     78.60151291	    119.74444632	     77.72875038
      6.75000000	    -34.39428721	      1.39243917	      5.25340558	      0.38959147	      0.61408330	     -0.10294522	    100.12391432	    -28.33027059	      0.54031919	     95.94494803	      1.67455524	     44.91795459	     23.73072541	     -7.49999987	     95.49705385	    -21.68160919	     -6.83094809	     91.76718163	      1.60163946	     38.85592009	     21.77825738	     -7.49999987	    -31.54356628	     -5.64666363	     -2.44791576	    101.33627672	      7.08538137	     67.19124451	    120.40206929	     82.83635277	     99.89373780	     10.54266685	     78.29172160	    119.23697723	     77.94574368
      6.76666670	    -34.76291974	      1.19164355	      5.38626285	      0.39109678	      0.60713251	     -0.09824990	    101.63138107	    -28.47878990	      1.07557409	     97.38527044	      1.69969361	     45.29340513	     24.24305292	     -7.49999987	     97.50307451	    -22.06359444	     -6.19735836	     93.60117446	      1.63364868	     38.52285805	     22.02954746	     -7.49999987	    -31.81098339	     -5.41204502	     -2.55644973	    102.39077669	      7.00088222	     67.10520574	    120.57927325	     82.78613881	    100.47695839	     10.49692674	     78.15033129	    119.15152780	     78.01257448
      6.78333330	    -34.95446518	      0.98024563	      5.50988597	      0.38662305	      0.59630980	     -0.09662740	    103.22818000	    -28.67377944	      1.55221928	     99.02977971	      1.72839571	     45.24442949	     24.18767260	     -7.49999987	     99.67025512	    -22.28287361	     -5.30040014	     95.71373179	      1.67051976	     38.41898384	     22.22299931	     -7.49999987	    -32.19312408	     -5.20114100	     -2.46747625	    103.47733087	      6.76843434	     67.29751991	    120.60804196	     82.66886273	    101.13895062	     10.39468254	     78.11953422	    119.29799105	     78.11340282
      6.80000000	    -34.88235861	      0.86309020	      5.49581772	      0.37404329	      0.57751783	     -0.10453789	    105.35755499	    -28.86077560	      2.51880310	    100.86207064	      1.76037522	     45.08701100	     23.99238625	     -7.49999987	    102.19264190	    -22.14732730	     -4.29144871	     98.20772306	      1.71404812	     38.69805395	     22.32226395	     -7.49999987	    -32.83464476	     -4.61023276	     -2.57968852	    105.69606211	      6.45083315	     66.66014137	    120.56610467	     81.32734518	    102.77804874	     10.48650587	     77.01852768	    119.16474468	     77.36399354
      6.81666670	    -34.80729311	      0.74152609	      5.61974009	      0.37561330	      0.56522018	     -0.10047472	    107.40156472	    -29.02339093	      3.52790776	    103.11053293	      1.79961829	     45.34198256	     23.65092596	     -7.49999987	    104.32213716	    -22.06764431	     -3.23709393	    100.37956292	      1.75195387	     38.96729053	     22.30577579	     -7.49999987	    -33.33214248	     -4.16320459	     -2.33458560	    106.88467823	      6.12134968	     66.10480485	    120.47247789	     81.04251354	    103.29546518	     10.54517473	     76.13885185	    119.44763394	     77.47087138
      6.83333330	    -34.42472595	      0.74261491	      5.74943699	      0.38196675	      0.55847213	     -0.09749569	    108.59076831	    -29.09277095	      4.24321847	    105.10414817	      1.83441344	     45.61050724	     23.16829082	     -7.49999987	    105.34251547	    -22.23301892	     -2.37049678	    102.11267745	      1.78220243	     39.07066504	     22.45569943	     -7.49999987	    -34.12495586	     -3.97961460	     -2.26113606	    106.95518034	      6.20262719	     66.12581035	    120.41481212	     80.99650525	    103.10961872	     10.41756287	     76.18612945	    119.46106830	     77.50221751
      6.85000000	    -34.93614619	      0.56424472	      5.84509777	      0.38650065	      0.55065249	     -0.09445179	    110.17214004	    -29.16611015	      4.59547824	    106.74506738	      1.86305289	     46.12904359	     22.74602591	     -7.49999987	    106.71506128	    -22.66511605	     -1.59575977	    103.30899837	      1.80308217	     39.65890341	     23.71229743	     -7.49999987	    -33.55998868	     -3.67125143	     -2.48591077	    106.06025336	      7.37385506	     66.83830621	    119.65600034	     80.41542643	    101.44175973	      9.62979850	     76.16089846	    120.92964056	     77.98179277
      6.86666670	    -35.36419489	      0.56479422	      5.95603190	      0.39498995	      0.54209891	     -0.09504811	    111.27380721	    -29.38874444	      5.12644793	    108.35187692	      1.89109700	     46.95450062	     22.77135420	     -7.49999987	    107.54254205	    -23.35940883	     -1.28683019	    104.45366041	      1.82306029	     40.21712435	     25.00759966	     -7.49999987	    -33.21564803	     -3.75671436	     -2.54111871	    104.38902912	      7.50834868	     67.93298894	    119.81780519	     80.23535113	     99.55703018	      9.38540182	     77.15937368	    121.43000888	     78.46391423
